<?xml version="1.0" encoding="UTF-8" standalone="no"?>
<!DOCTYPE svg PUBLIC "-//W3C//DTD SVG 1.1//EN" "http://www.w3.org/Graphics/SVG/1.1/DTD/svg11.dtd">
<svg version="1.1" xmlns:xl="http://www.w3.org/1999/xlink" xmlns:dc="http://purl.org/dc/elements/1.1/" xmlns="http://www.w3.org/2000/svg" viewBox="56 100 110 73" width="110" height="73">
  <defs/>
  <metadata> Produced by OmniGraffle 7.9 
    <dc:date>2018-09-27 16:16:19 +0000</dc:date>
  </metadata>
  <g id="Canvas_1" stroke-dasharray="none" stroke="none" fill-opacity="1" stroke-opacity="1" fill="none">
    <title>Canvas 1</title>
    <g id="Canvas_1: Layer 1">
      <title>Layer 1</title>
      <g id="Graphic_9">
        <path d="M 87.29402 100.64429 L 56.94222 100.64429 L 56.94222 154.65303 C 56.94222 165.90586 62.10568 172.5968 69.67103 172.5968 L 151.67063 172.5968 L 151.67063 172.5968 L 153.81548 172.5968 C 160.03065 172.57934 165.06794 165.3857 165.0736 156.50924 L 165.0736 118.58806 C 165.0736 107.33792 159.91107 100.64429 152.34572 100.64429 L 87.29403 100.64429 Z" fill="#d1d5d5"/>
      </g>
      <g id="Group_5">
        <g id="Graphic_8">
          <path d="M 96.50536 152.77888 C 93.59536 146.69488 96.76936 145.37388 96.76936 145.37388 C 99.94236 144.05088 102.05836 149.86688 102.05836 149.86688 Z" fill="#f6faf7"/>
        </g>
        <g id="Graphic_7">
          <path d="M 127.02206 152.77888 C 129.93006 146.69488 126.75706 145.37388 126.75706 145.37388 C 123.58306 144.05088 121.46706 149.86688 121.46706 149.86688 Z" fill="#f6faf7"/>
        </g>
        <g id="Graphic_6">
          <path d="M 127.81276 155.40698 C 121.08576 151.86698 115.16676 150.73698 110.28076 150.73498 C 102.16376 150.72998 96.84376 153.89498 95.73476 154.62298 C 95.57976 154.72598 95.52576 154.76298 95.52576 154.76498 C 94.86576 155.24398 93.94076 155.10198 93.45876 154.44198 C 92.97776 153.78398 93.12176 152.85798 93.78076 152.37698 C 93.93076 152.26998 100.10576 147.78098 110.28076 147.77598 C 115.62576 147.77398 122.05676 149.03198 129.19076 152.79098 C 129.91376 153.16998 130.19076 154.06498 129.80976 154.78598 C 129.54376 155.29098 129.03076 155.57698 128.49976 155.57698 C 128.26776 155.57698 128.03276 155.52298 127.81276 155.40698 Z" fill="#626463"/>
        </g>
      </g>
      <g id="Group_2">
        <g id="Graphic_4">
          <path d="M 121.53982 126.7151 C 121.53982 132.2661 117.03982 136.7661 111.48982 136.7661 C 105.93882 136.7661 101.43882 132.2661 101.43882 126.7151 C 101.43882 121.1641 105.93882 116.6641 111.48982 116.6641 C 117.03982 116.6641 121.53982 121.1641 121.53982 126.7151 Z" fill="#f7fdfb"/>
        </g>
        <g id="Graphic_3">
          <path d="M 115.85122 127.5684 C 114.28022 127.5684 113.00622 126.2954 113.00622 124.7244 C 113.00622 123.2724 114.09622 122.0894 115.50122 121.9154 C 114.41522 121.0054 113.01722 120.4574 111.49022 120.4574 C 108.03322 120.4574 105.23222 123.2584 105.23222 126.7154 C 105.23222 130.1704 108.03322 132.9724 111.49022 132.9724 C 114.90622 132.9724 117.67622 130.2354 117.74022 126.8344 C 117.23722 127.2864 116.58122 127.5684 115.85122 127.5684 Z" fill="#37474f"/>
        </g>
      </g>
    </g>
  </g>
</svg>
