<?xml version="1.0" encoding="UTF-8" standalone="no"?>
<!DOCTYPE svg PUBLIC "-//W3C//DTD SVG 1.1//EN" "http://www.w3.org/Graphics/SVG/1.1/DTD/svg11.dtd">
<svg version="1.1" xmlns:xl="http://www.w3.org/1999/xlink" xmlns:dc="http://purl.org/dc/elements/1.1/" xmlns="http://www.w3.org/2000/svg" viewBox="315 102 110 73" width="110" height="73">
  <defs/>
  <metadata> Produced by OmniGraffle 7.9 
    <dc:date>2018-09-27 16:19:26 +0000</dc:date>
  </metadata>
  <g id="Canvas_1" stroke-dasharray="none" stroke="none" fill-opacity="1" stroke-opacity="1" fill="none">
    <title>Canvas 1</title>
    <g id="Canvas_1: Layer 1">
      <title>Layer 1</title>
      <g id="Graphic_10">
        <path d="M 346.34687 102.825 L 315.99506 102.825 L 315.99506 156.83375 C 315.99506 168.08658 321.15852 174.77753 328.72388 174.77753 L 410.72347 174.77753 L 410.72347 174.77753 L 412.8683 174.77753 C 419.0835 174.76005 424.1208 167.56641 424.12643 158.68996 L 424.12643 120.76878 C 424.12643 109.51864 418.9639 102.825 411.39856 102.825 L 346.34687 102.825 Z" fill="#d1d5d5"/>
      </g>
      <g id="Group_5">
        <g id="Graphic_9">
          <path d="M 379.51375 154.0688 C 369.31817 149.0215 359.39558 151.04624 353.75694 153.04959 C 355.63107 158.40582 360.77764 162.25505 366.8373 162.25505 C 372.50504 162.25505 377.37434 158.88762 379.51375 154.0688 Z" fill="#818381"/>
        </g>
        <g id="Graphic_8">
          <path d="M 379.51375 154.0688 C 379.3195 154.5061 380.6759 151.04368 380.6759 148.58506 C 380.6759 141.03465 374.48014 144.44744 366.8373 144.44744 C 359.1936 144.44744 352.99788 141.03465 352.99788 148.58506 C 352.99788 150.14855 353.26744 151.64956 353.75694 153.04959 C 359.39558 151.04624 369.31817 149.0215 379.51375 154.0688 Z" fill="#444544"/>
        </g>
        <g id="Graphic_7">
          <path d="M 355.53223 143.90455 C 355.61352 145.5904 355.88223 148.49487 356.7705 149.295 C 357.53557 149.9317 358.17226 149.67668 358.17226 149.03999 C 358.17226 148.60184 358.59415 145.69224 358.94074 143.75222 C 357.61772 143.6384 356.4633 143.63327 355.53223 143.90455 Z" fill="white"/>
        </g>
        <g id="Graphic_6">
          <path d="M 378.18107 143.90455 C 378.09977 145.5904 377.83106 148.49487 376.94278 149.295 C 376.1777 149.9317 375.54103 149.67668 375.54103 149.03999 C 375.54103 148.60184 375.11914 145.69224 374.77256 143.75222 C 376.09557 143.6384 377.25 143.63327 378.18107 143.90455 Z" fill="white"/>
        </g>
      </g>
      <g id="Group_2">
        <g id="Graphic_4">
          <path d="M 376.8874 126.7151 C 376.8874 132.2661 372.3874 136.7661 366.8374 136.7661 C 361.2864 136.7661 356.7864 132.2661 356.7864 126.7151 C 356.7864 121.1641 361.2864 116.6641 366.8374 116.6641 C 372.3874 116.6641 376.8874 121.1641 376.8874 126.7151 Z" fill="#f7fdfb"/>
        </g>
        <g id="Graphic_3">
          <path d="M 371.1988 127.5684 C 369.6278 127.5684 368.3538 126.2954 368.3538 124.7244 C 368.3538 123.2724 369.4438 122.0894 370.8488 121.9154 C 369.7628 121.0054 368.3648 120.4574 366.8378 120.4574 C 363.3808 120.4574 360.5798 123.2584 360.5798 126.7154 C 360.5798 130.1704 363.3808 132.9724 366.8378 132.9724 C 370.2538 132.9724 373.0238 130.2354 373.0878 126.8344 C 372.5848 127.2864 371.9288 127.5684 371.1988 127.5684 Z" fill="#37474f"/>
        </g>
      </g>
    </g>
  </g>
</svg>
