<?xml version="1.0" encoding="UTF-8" standalone="no"?>
<!DOCTYPE svg PUBLIC "-//W3C//DTD SVG 1.1//EN" "http://www.w3.org/Graphics/SVG/1.1/DTD/svg11.dtd">
<svg version="1.1" xmlns:xl="http://www.w3.org/1999/xlink" xmlns:dc="http://purl.org/dc/elements/1.1/" xmlns="http://www.w3.org/2000/svg" viewBox="190 100 110 73" width="110" height="73">
  <defs/>
  <metadata> Produced by OmniGraffle 7.9 
    <dc:date>2018-09-27 16:18:49 +0000</dc:date>
  </metadata>
  <g id="Canvas_1" stroke-dasharray="none" stroke="none" fill-opacity="1" stroke-opacity="1" fill="none">
    <title>Canvas 1</title>
    <g id="Canvas_1: Layer 1">
      <title>Layer 1</title>
      <g id="Graphic_8">
        <path d="M 221.28745 100.64429 L 190.93564 100.64429 L 190.93564 154.65303 C 190.93564 165.90586 196.0991 172.5968 203.66446 172.5968 L 285.66405 172.5968 L 285.66405 172.5968 L 287.8089 172.5968 C 294.02408 172.57934 299.06137 165.3857 299.067 156.50924 L 299.067 118.58806 C 299.067 107.33792 293.9045 100.64429 286.33914 100.64429 L 221.28745 100.64429 Z" fill="#d1d5d5"/>
      </g>
      <g id="Group_5">
        <g id="Graphic_7">
          <path d="M 256.8546 154.62388 C 256.8546 162.26688 250.6586 163.42988 243.0156 163.42988 C 235.3716 163.42988 229.1766 162.26688 229.1766 154.62388 C 229.1766 146.98088 235.3716 140.78688 243.0156 140.78688 C 250.6586 140.78688 256.8546 146.98088 256.8546 154.62388 Z" fill="#656867"/>
        </g>
        <g id="Graphic_6">
          <path d="M 249.3056 148.61158 C 251.2976 147.77258 252.0316 146.06758 252.1716 144.26458 C 249.7306 142.10858 246.5316 140.78358 243.0156 140.78358 C 239.5356 140.78358 236.3676 142.07758 233.9346 144.19658 C 234.1406 146.40458 234.9256 149.05958 237.5646 148.89458 C 242.0366 148.61158 242.5956 144.69858 242.5956 144.69858 C 243.9946 150.84958 249.3056 148.61158 249.3056 148.61158 Z" fill="#fbfffc"/>
        </g>
      </g>
      <g id="Group_2">
        <g id="Graphic_4">
          <path d="M 252.3953 126.7151 C 252.3953 132.2661 247.8953 136.7661 242.3453 136.7661 C 236.7943 136.7661 232.2943 132.2661 232.2943 126.7151 C 232.2943 121.1641 236.7943 116.6641 242.3453 116.6641 C 247.8953 116.6641 252.3953 121.1641 252.3953 126.7151 Z" fill="#f7fdfb"/>
        </g>
        <g id="Graphic_3">
          <path d="M 246.7067 127.5684 C 245.1357 127.5684 243.8617 126.2954 243.8617 124.7244 C 243.8617 123.2724 244.9517 122.0894 246.3567 121.9154 C 245.2707 121.0054 243.8727 120.4574 242.3457 120.4574 C 238.8887 120.4574 236.0877 123.2584 236.0877 126.7154 C 236.0877 130.1704 238.8887 132.9724 242.3457 132.9724 C 245.7617 132.9724 248.5317 130.2354 248.5957 126.8344 C 248.0927 127.2864 247.4367 127.5684 246.7067 127.5684 Z" fill="#37474f"/>
        </g>
      </g>
    </g>
  </g>
</svg>
